<svg width="74" height="68" viewBox="0 0 74 68" fill="none" xmlns="http://www.w3.org/2000/svg">
<path d="M0.83 41L6.06 26.54H8.15L13.38 41H11.49L10.07 37.04H4.14L2.71 41H0.83ZM4.63 35.34H9.56L7.1 28.35L4.63 35.34ZM16.1092 41V26.54H17.9592V41H16.1092ZM21.7733 41V26.54H27.3733C28.4133 26.54 29.2833 26.7 29.9833 27.02C30.6833 27.3333 31.2066 27.7867 31.5533 28.38C31.8999 28.9667 32.0733 29.67 32.0733 30.49C32.0733 31.2767 31.9333 31.93 31.6533 32.45C31.3799 32.97 31.0299 33.39 30.6033 33.71C30.1766 34.0233 29.7333 34.2667 29.2733 34.44L32.1133 41H30.1533L27.5133 34.77H23.6233V41H21.7733ZM23.6233 33.24H26.7733C27.8599 33.24 28.6999 33.02 29.2933 32.58C29.8866 32.1333 30.1833 31.4733 30.1833 30.6C30.1833 29.7467 29.9166 29.11 29.3833 28.69C28.8566 28.2633 28.1333 28.05 27.2133 28.05H23.6233V33.24Z" fill="#00BDE3"/>
<path d="M41.1384 41V37.31H34.3284V35.62L41.0684 26.54H42.9484V35.68H45.3484V37.31H42.9484V41H41.1384ZM36.0984 35.68H41.0984V28.97L36.0984 35.68ZM53.1666 41.2C51.9132 41.2 50.8966 40.9933 50.1166 40.58C49.3432 40.1667 48.7766 39.56 48.4166 38.76C48.0632 37.96 47.8866 36.9767 47.8866 35.81V26.54H49.8066V36.09C49.8066 37.2567 50.0966 38.13 50.6766 38.71C51.2566 39.29 52.0866 39.58 53.1666 39.58C53.8932 39.58 54.5099 39.4533 55.0166 39.2C55.5299 38.9467 55.9199 38.5633 56.1866 38.05C56.4599 37.53 56.5966 36.8767 56.5966 36.09V26.54H58.4566V36C58.4566 37.1133 58.2732 38.0567 57.9066 38.83C57.5399 39.6033 56.9666 40.1933 56.1866 40.6C55.4132 41 54.4066 41.2 53.1666 41.2ZM66.7905 41.2C66.0838 41.2 65.4138 41.1167 64.7805 40.95C64.1471 40.7767 63.5705 40.52 63.0505 40.18C62.5371 39.84 62.1105 39.42 61.7705 38.92C61.4371 38.4133 61.2271 37.8267 61.1405 37.16H63.0805C63.2005 37.7067 63.4371 38.1667 63.7905 38.54C64.1505 38.9133 64.5938 39.1933 65.1205 39.38C65.6538 39.5667 66.2371 39.66 66.8705 39.66C67.4838 39.66 68.0471 39.5633 68.5605 39.37C69.0805 39.1767 69.4971 38.8967 69.8105 38.53C70.1238 38.1567 70.2805 37.71 70.2805 37.19C70.2805 36.6167 70.0938 36.1567 69.7205 35.81C69.3471 35.4567 68.7705 35.1733 67.9905 34.96L65.0105 34.19C64.3371 34.0233 63.7405 33.79 63.2205 33.49C62.7071 33.1833 62.3038 32.7833 62.0105 32.29C61.7171 31.79 61.5705 31.17 61.5705 30.43C61.5705 29.61 61.7971 28.8967 62.2505 28.29C62.7038 27.6767 63.3171 27.2033 64.0905 26.87C64.8705 26.53 65.7505 26.36 66.7305 26.36C67.8638 26.36 68.8171 26.5567 69.5905 26.95C70.3705 27.3433 70.9605 27.86 71.3605 28.5C71.7605 29.14 71.9605 29.8233 71.9605 30.55H70.0605C70.0005 29.89 69.8071 29.37 69.4805 28.99C69.1538 28.6033 68.7471 28.3267 68.2605 28.16C67.7738 27.9867 67.2438 27.9 66.6705 27.9C65.6371 27.9 64.8538 28.1367 64.3205 28.61C63.7938 29.0767 63.5305 29.6333 63.5305 30.28C63.5305 30.8733 63.7205 31.34 64.1005 31.68C64.4805 32.02 65.0405 32.2833 65.7805 32.47L68.6805 33.22C69.5405 33.42 70.2238 33.71 70.7305 34.09C71.2438 34.47 71.6105 34.9133 71.8305 35.42C72.0571 35.92 72.1705 36.4633 72.1705 37.05C72.1705 37.85 71.9471 38.5633 71.5005 39.19C71.0538 39.8167 70.4271 40.31 69.6205 40.67C68.8205 41.0233 67.8771 41.2 66.7905 41.2Z" fill="#1A4480"/>
</svg>
